<svg width="4068" height="38" xmlns="http://www.w3.org/2000/svg">
<path d="M1691.004 28.05C1553.784 20.34 1485.435 15 1356 15V0h1356v15c-129.435 0-197.785 5.34-335.004 13.05-137.22 7.71-257.553 9.375-342.996 9.95-85.443-.575-205.776-2.24-342.996-9.95zm1356 0C2909.784 20.34 2841.435 15 2712 15V0h1356v15c-129.435 0-197.785 5.34-335.004 13.05-137.22 7.71-257.553 9.375-342.996 9.95-85.443-.575-205.776-2.24-342.996-9.95zm-2712 0C197.784 20.34 129.435 15 0 15V0h1356v15c-129.435 0-197.785 5.34-335.004 13.05C883.776 35.76 763.443 37.426 678 38c-85.443-.575-205.776-2.24-342.996-9.95z" fill="#6556b2" fill-rule="evenodd"/>
</svg>