<svg width="4068" height="38" xmlns="http://www.w3.org/2000/svg"><path d="M1356 38V0c-85.443.575-205.776 2.24-342.996 9.95-135.847 7.632-204.195 12.943-331.14 13.048L678 23c-129.435 0-197.785-5.34-335.004-13.05C205.776 2.24 85.443.574 0 0v38h1356zm1356 0V0c-85.443.575-205.776 2.24-342.996 9.95-135.847 7.632-204.195 12.943-331.14 13.048L2034 23c-129.435 0-197.785-5.34-335.004-13.05C1561.776 2.24 1441.443.574 1356 0v38h1356zm1356 0V0c-85.443.575-205.776 2.24-342.996 9.95-135.847 7.632-204.195 12.943-331.14 13.048L3390 23c-129.435 0-197.785-5.34-335.004-13.05C2917.776 2.24 2797.443.574 2712 0v38h1356z" fill="#6556b2" fill-rule="evenodd"/></svg>