<svg xmlns="http://www.w3.org/2000/svg" width="40" height="40"><g fill="none" fill-rule="evenodd"><circle cx="20" cy="20" r="20" fill="#FFF"/><path fill="#000" fill-rule="nonzero" d="M20 0a20 20 0 1020 19.99A19.99 19.99 0 0020 0m7.936 21.447c.301.343.621.67.959.976.886.77 1.652 1.667 2.272 2.663.03.045.058.093.08.142.038.104.065.21.08.32a.888.888 0 010 .408.55.55 0 01-.293.32c-.216.11-.458.162-.701.15l-3.045.054a1.367 1.367 0 01-.666-.062 2.77 2.77 0 01-.62-.267l-.24-.142a5.468 5.468 0 01-.835-.763c-.31-.337-.586-.648-.808-.888a4.083 4.083 0 00-.728-.692.763.763 0 00-.674-.187h-.098a.808.808 0 00-.195.17 1.358 1.358 0 00-.258.354c-.096.194-.165.4-.204.613-.062.291-.088.59-.08.887.015.11.015.22 0 .329a.941.941 0 01-.089.222l-.053.062a1.003 1.003 0 01-.63.257h-1.35a5.406 5.406 0 01-1.775-.195 6.596 6.596 0 01-1.562-.63c-.444-.258-.888-.524-1.225-.79a5.939 5.939 0 01-.835-.684l-.301-.284-.329-.355c-.133-.16-.417-.524-.888-1.083-.47-.56-.843-1.163-1.26-1.775-.417-.613-.888-1.474-1.456-2.512-.568-1.04-1.003-2.087-1.482-3.187a1.003 1.003 0 01-.071-.32.426.426 0 010-.186l.053-.071a.826.826 0 01.675-.231h3.257c.095.017.187.044.276.08.07.026.135.061.195.106h.053c.134.09.234.22.284.373.16.4.346.817.55 1.234.205.417.373.755.489.977l.186.337c.201.425.423.84.666 1.243.174.284.367.557.577.816.147.17.314.323.497.453a.728.728 0 00.408.169c.11 0 .219-.02.32-.062l.062-.054.142-.266c.082-.177.135-.366.16-.56.035-.23.071-.55.107-.958a8.318 8.318 0 000-1.491 4.323 4.323 0 00-.107-.888 2.264 2.264 0 00-.16-.541l-.07-.151a1.491 1.491 0 00-1.013-.506c-.106 0-.089-.116.053-.284a1.9 1.9 0 01.453-.364 7.883 7.883 0 012.85-.258 7.82 7.82 0 011.606.16c.139.03.271.084.391.16a.604.604 0 01.249.284c.054.122.096.25.124.382.032.178.047.36.044.541v3.542c-.011.16-.011.32 0 .48.014.163.06.323.133.47a.941.941 0 00.267.293l.204.044c.07 0 .177 0 .31-.133a4.28 4.28 0 00.453-.408c.23-.248.438-.516.622-.8.24-.354.515-.78.807-1.278.488-.855.913-1.745 1.27-2.663.031-.074.07-.146.115-.213a.781.781 0 01.133-.124h.267a.417.417 0 01.23 0h3.427a1.89 1.89 0 01.763 0 .675.675 0 01.373.195l.071.116c.178.506-.417 1.677-1.775 3.497l-.772 1.012a8.797 8.797 0 00-1.075 1.562.888.888 0 00.17.96"/></g></svg>