<svg xmlns="http://www.w3.org/2000/svg" width="408" height="423">
<g fill="none" fill-rule="evenodd" opacity=".3">
<path fill="#8005f9" d="M0 0h102v423H0z"/>
<path fill="grey" fill-rule="nonzero" d="M0 0v423h8s-.097-89.974-.19-211.5C7.89 89.96 7.987 0 7.987 0H0zm94 0s.097 89.931.178 211.5C94.097 333.055 94 423 94 423h8V0h-8zM67 0s0 90.105.018 211.5S67 423 67 423h17s0-90.713-.029-211.5S84 0 84 0H67zM33 0H20s.039 90.105.078 211.5C20.038 332.88 20 423 20 423h13V0zm27 0H42v423h18V0z"/>
<path fill="#8005f9" fill-opacity=".35" d="M0 0h102v423H0z"/>
<path fill="#8005f9" d="M204 0h102v423H204z"/>
<path fill="grey" fill-rule="nonzero" d="M204 0v423h8s-.097-89.974-.19-211.5c.08-121.54.178-211.5.178-211.5H204zm94 0s.097 89.931.178 211.5C298.097 333.055 298 423 298 423h8V0h-8zm-27 0s0 90.105.018 211.5S271 423 271 423h17s0-90.713-.029-211.5S288 0 288 0h-17zm-34 0h-13s.039 90.105.078 211.5C224.038 332.88 224 423 224 423h13V0zm27 0h-18v423h18V0z"/>
<path fill="#8005f9" fill-opacity=".35" d="M204 0h102v423H204z"/>
<path fill="#8005f9" d="M102 0h102v423H102z"/>
<path fill="grey" fill-rule="nonzero" d="M102 0v423h8s-.097-89.974-.19-211.5c.08-121.54.178-211.5.178-211.5H102zm94 0s.097 89.931.178 211.5C196.097 333.055 196 423 196 423h8V0h-8zm-27 0s0 90.105.018 211.5S169 423 169 423h17s0-90.713-.029-211.5S186 0 186 0h-17zm-34 0h-13s.039 90.105.078 211.5C122.038 332.88 122 423 122 423h13V0zm27 0h-18v423h18V0z"/>
<path fill="#8005f9" fill-opacity=".35" d="M102 0h102v423H102z"/>
<path fill="#8005f9" d="M306 0h102v423H306z"/>
<path fill="grey" fill-rule="nonzero" d="M306 0v423h8s-.097-89.974-.19-211.5c.08-121.54.178-211.5.178-211.5H306zm94 0s.097 89.931.178 211.5C400.097 333.055 400 423 400 423h8V0h-8zm-27 0s0 90.105.018 211.5S373 423 373 423h17s0-90.713-.029-211.5S390 0 390 0h-17zm-34 0h-13s.039 90.105.078 211.5C326.038 332.88 326 423 326 423h13V0zm27 0h-18v423h18V0z"/>
<path fill="#8005f9" fill-opacity=".35" d="M306 0h102v423H306z"/>
</g></svg>