<svg width="40" height="40" xmlns="http://www.w3.org/2000/svg"><g fill="none"><circle fill="#FFF" cx="20" cy="20" r="20"/><path d="M20 0c11.046 0 20 8.954 20 20s-8.954 20-20 20S0 31.046 0 20 8.954 0 20 0zm8.177 12.04c-.752.013-1.906.415-7.46 2.725-1.946.809-5.833 2.484-11.664 5.024-.947.376-1.443.745-1.488 1.105-.086.691.909.907 2.162 1.314 1.02.332 2.394.72 3.108.735.648.014 1.371-.253 2.17-.8 5.447-3.678 8.259-5.537 8.435-5.577.125-.028.298-.064.415.04.117.104.105.301.093.354-.1.422-5.217 5.077-5.511 5.383-1.126 1.169-2.406 1.884-.431 3.185 1.709 1.126 2.703 1.844 4.463 2.998 1.125.738 2.007 1.612 3.169 1.505.534-.05 1.086-.552 1.366-2.05.663-3.542 1.965-11.217 2.266-14.38a3.527 3.527 0 00-.033-.787c-.027-.155-.082-.377-.285-.541-.24-.195-.61-.236-.775-.233z" fill="#229ED9"/></g></svg>