<svg width="40" height="40" xmlns="http://www.w3.org/2000/svg"><g fill="none" fill-rule="evenodd"><circle fill="#000" fill-rule="nonzero" cx="20" cy="20" r="20"/><path d="M28.13 12.146c-.552-.503-2.775-2.107-7.727-2.13 0 0-5.842-.35-8.69 2.245-1.586 1.575-2.144 3.88-2.2 6.738-.057 2.859-.137 8.211 5.06 9.664h.004l-.003 2.215s-.033.898.562 1.08c.717.22 1.14-.46 1.827-1.196.376-.402.898-.997 1.29-1.449 3.553.297 6.288-.383 6.597-.482.718-.231 4.779-.75 5.437-6.101.681-5.517-.333-9.01-2.157-10.584zm.601 10.188c-.558 4.47-3.851 4.755-4.456 4.946-.26.083-2.659.677-5.676.479 0 0-2.25 2.694-2.952 3.397-.11.109-.239.155-.325.132-.12-.03-.153-.172-.153-.38.003-.297.02-3.68.02-3.68-4.394-1.213-4.138-5.772-4.088-8.16.05-2.387.502-4.341 1.841-5.655 2.41-2.166 7.371-1.842 7.371-1.842 4.191.02 6.198 1.27 6.664 1.69 1.542 1.317 2.33 4.464 1.754 9.073z" fill="#FFF" fill-rule="nonzero"/><path d="M22.6 20c-.063-1.27-.73-1.935-2-2m3.999 2c.025-1.102-.318-2.023-1.03-2.762-.712-.74-1.7-1.152-2.969-1.238m6 4c-.014-1.857-.594-3.314-1.736-4.383C23.724 14.548 22.3 14.01 20.6 14" stroke="#FFF" stroke-width=".88" stroke-linecap="round" stroke-linejoin="round"/><path d="M21.116 22.988s.39.033.598-.226l.407-.512c.197-.256.673-.417 1.139-.158.26.148.725.433 1.014.647.309.226.942.755.942.755.302.253.371.627.168 1.02a4.245 4.245 0 01-.854 1.054l-.006.007c-.292.243-.581.384-.864.417a.484.484 0 01-.124.007 1.176 1.176 0 01-.368-.056l-.01-.013c-.436-.122-1.162-.43-2.373-1.097-.7-.381-1.368-.821-1.993-1.316a10.541 10.541 0 01-.896-.795l-.03-.03-.03-.029-.029-.03-.03-.029a10.541 10.541 0 01-.794-.896 14.167 14.167 0 01-1.316-1.993c-.667-1.211-.975-1.937-1.097-2.373l-.013-.01a1.088 1.088 0 01-.056-.368.484.484 0 01.007-.124c.033-.283.174-.572.417-.864l.006-.006a4.186 4.186 0 011.054-.854c.394-.203.768-.134 1.021.168.003.003.529.633.755.942.233.327.449.665.647 1.014.26.466.098.942-.158 1.14l-.512.406c-.26.21-.226.598-.226.598s.761 2.879 3.604 3.604z" fill="#FFF" fill-rule="nonzero"/></g></svg>