<svg xmlns="http://www.w3.org/2000/svg" width="40" height="40"><g fill="none" fill-rule="evenodd"><circle cx="20" cy="20" r="20" fill="#FFF"/><path fill="red" fill-rule="nonzero" d="M20 0c11.046 0 20 8.954 20 20s-8.954 20-20 20S0 31.046 0 20 8.954 0 20 0zm.04 11.579h-.08c-.58 0-7.276.02-9 .469a2.878 2.878 0 00-2.054 1.996 28.59 28.59 0 00-.484 5.425 28.65 28.65 0 00.484 5.434A2.878 2.878 0 0010.96 26.9c1.637.428 7.82.465 8.884.468h.312c1.063-.003 7.247-.04 8.893-.468a2.85 2.85 0 002.045-1.997 28.65 28.65 0 00.484-5.434 28.59 28.59 0 00-.484-5.45 2.852 2.852 0 00-2.045-1.971c-1.716-.449-8.428-.468-9.009-.469zm-2.399 4.54l6.054 3.324-6.054 3.334v-6.658z"/></g></svg>